<?xml version="1.0" encoding="UTF-8"?>
<svg xmlns="http://www.w3.org/2000/svg" xmlns:xlink="http://www.w3.org/1999/xlink" width="150px" height="170px" viewBox="0 0 150 169" version="1.1">
<defs>
<clipPath id="clip1">
  <path d="M 38.566406 42.699219 L 111.433594 42.699219 L 111.433594 126.300781 L 38.566406 126.300781 Z M 38.566406 42.699219 "/>
</clipPath>
</defs>
<g id="surface1">
<path style=" stroke:none;fill-rule:nonzero;fill:rgb(100%,0%,0%);fill-opacity:1;" d="M 102.925781 19.945312 C 103.261719 19.945312 105.914062 21.257812 107.402344 21.75 C 106.902344 21.914062 105.746094 21.421875 104.417969 20.925781 C 104.753906 20.925781 105.417969 21.097656 106.078125 21.421875 C 105.746094 21.097656 103.261719 20.273438 102.925781 19.945312 M 78.234375 14.851562 C 78.726562 14.6875 84.527344 15.511719 87.183594 15.675781 C 87.347656 15.511719 86.855469 15.511719 86.183594 15.347656 C 87.019531 15.183594 88.675781 15.675781 89.835938 15.839844 C 86.355469 16 82.542969 15.015625 79.222656 15.347656 C 78.066406 15.347656 78.894531 15.019531 78.234375 14.851562 M 73.425781 14.851562 C 76.40625 14.851562 78.726562 14.851562 74.417969 15.183594 C 73.921875 15.015625 73.261719 15.015625 73.425781 14.851562 M 120.332031 28.484375 C 120.660156 28.484375 121.988281 29.964844 122.652344 30.453125 C 122.484375 30.617188 121.160156 29.304688 120.496094 28.8125 C 120.660156 28.976562 120.496094 28.8125 120.332031 28.484375 M 117.019531 26.347656 C 115.6875 25.195312 115.195312 25.195312 115.027344 24.542969 C 116.183594 25.195312 117.019531 25.855469 117.019531 26.347656 M 95.636719 16 C 95.800781 15.839844 96.136719 16.164062 96.960938 16.328125 C 95.964844 16.164062 96.136719 16.328125 96.464844 16.65625 C 95.300781 16.492188 94.972656 16.328125 95.300781 16 C 95.964844 16.328125 96.136719 16.164062 95.636719 16 M 48.5625 17.96875 C 48.5625 17.808594 49.222656 17.480469 49.722656 17.316406 C 49.222656 17.644531 49.394531 17.808594 50.222656 17.480469 C 50.222656 17.644531 49.222656 17.96875 48.5625 18.304688 C 48.894531 18.132812 49.222656 17.644531 48.5625 17.96875 M 98.953125 14.359375 C 98.457031 14.523438 96.632812 13.535156 94.804688 13.207031 C 93.816406 12.882812 98.785156 14.03125 98.953125 14.359375 M 1.160156 95.488281 C 2.15625 99.597656 1.496094 99.433594 1.160156 95.488281 M 1.324219 70.851562 C 1.496094 70.199219 1.660156 68.394531 1.824219 68.558594 C 1.324219 72.496094 0.496094 74.304688 0.332031 77.261719 C 0.824219 74.632812 0.164062 78.738281 0 79.722656 C 0.164062 81.035156 0.164062 78.902344 0.496094 79.230469 C 0.824219 79.722656 -0.164062 86.621094 0.164062 82.847656 C -0.164062 86.292969 0.164062 90.066406 0.824219 91.054688 C 0 96.3125 4.144531 108.136719 4.972656 110.597656 C 5.136719 110.761719 4.972656 109.777344 5.300781 110.433594 C 5.636719 112.570312 7.125 114.050781 7.621094 116.34375 C 8.121094 117.003906 10.113281 120.617188 10.441406 121.441406 C 11.105469 122.753906 11.4375 122.585938 12.097656 123.898438 C 14.085938 127.679688 17.238281 131.289062 20.222656 134.742188 C 29.835938 145.90625 44.582031 155.101562 60.996094 158.390625 C 77.402344 161.835938 94.640625 159.378906 108.066406 152.96875 C 108.894531 152.480469 108.726562 152.316406 109.722656 151.980469 C 114.363281 150.503906 120 145.742188 123.144531 143.9375 C 124.640625 142.296875 128.621094 139.503906 129.117188 137.863281 C 131.933594 135.558594 134.753906 131.785156 136.242188 129.320312 C 137.074219 128.007812 137.738281 128.007812 138.066406 127.1875 C 137.902344 127.1875 140.71875 123.734375 141.542969 121.765625 C 141.214844 121.765625 140.71875 122.753906 140.71875 121.765625 C 146.683594 110.433594 150 95.160156 148.175781 84.652344 C 148.503906 97.628906 145.195312 112.074219 138.894531 121.269531 C 136.078125 127.1875 130.277344 133.589844 124.972656 138.1875 C 124.144531 139.011719 123.316406 139.992188 122.320312 140.652344 C 119.175781 143.277344 115.6875 145.414062 112.042969 147.382812 C 103.425781 152.152344 93.816406 156.253906 82.542969 156.417969 C 101.933594 154.773438 119.339844 145.089844 128.953125 133.265625 C 121.660156 140.320312 118.503906 143.113281 110.386719 147.21875 C 109.722656 148.371094 104.253906 150.671875 100.605469 151.65625 C 102.761719 150.671875 107.238281 149.027344 108.726562 147.710938 C 96.632812 153.460938 83.203125 156.75 70.605469 154.9375 C 75.417969 154.9375 82.207031 155.109375 88.675781 153.957031 C 89.667969 153.628906 90.164062 153.296875 91.324219 153.132812 C 103.921875 150.339844 116.019531 144.265625 124.640625 135.722656 C 119.667969 140.15625 112.214844 145.414062 107.402344 147.058594 C 111.878906 144.589844 120 139.832031 122.652344 136.21875 C 117.347656 141.472656 107.402344 146.730469 101.105469 149.027344 C 100.113281 149.191406 101.765625 148.371094 100.113281 149.027344 C 98.121094 149.523438 98.953125 149.523438 98.457031 149.851562 C 90.824219 151.988281 82.042969 153.792969 74.753906 153.132812 C 73.425781 152.96875 72.925781 152.640625 71.765625 152.640625 C 70.441406 152.480469 69.28125 152.480469 67.792969 152.480469 C 61.988281 151.820312 55.691406 149.523438 51.046875 147.546875 C 48.5625 146.402344 46.078125 145.578125 43.59375 144.101562 C 41.601562 142.949219 39.941406 141.636719 38.285156 140.328125 C 31.992188 135.722656 26.683594 131.125 21.714844 124.558594 C 12.761719 112.242188 8.121094 96.804688 8.785156 81.53125 C 9.445312 66.253906 15.582031 51.3125 25.359375 40.308594 C 24.863281 40.800781 26.019531 39.160156 27.019531 38.171875 C 27.019531 38.5 26.847656 38.996094 28.011719 37.84375 C 29.003906 36.695312 27.679688 37.519531 28.175781 36.859375 C 38.457031 25.695312 56.355469 16.65625 74.753906 16.328125 C 75.417969 15.839844 76.574219 15.183594 77.902344 15.511719 C 77.902344 15.675781 77.074219 15.675781 77.074219 15.675781 C 78.894531 15.511719 80.554688 15.511719 81.378906 15.839844 C 81.542969 15.675781 80.71875 15.511719 81.378906 15.511719 C 82.542969 15.839844 82.875 15.511719 83.535156 15.839844 C 83.039062 15.839844 82.542969 15.839844 82.207031 16 C 86.355469 16 89.003906 16.988281 93.144531 17.316406 C 90.996094 16.824219 90.496094 16.824219 88.839844 16.328125 C 90.660156 16.65625 91.496094 16.988281 92.320312 16.824219 C 91.988281 16.824219 92.15625 16.328125 92.484375 16.492188 C 95.800781 17.316406 96.136719 17.644531 99.613281 18.792969 C 99.941406 18.46875 98.121094 18.304688 97.621094 17.808594 C 100.941406 18.957031 103.921875 19.78125 105.914062 21.097656 C 105.246094 20.597656 103.261719 19.945312 101.765625 19.285156 C 101.601562 19.449219 102.261719 19.613281 102.433594 19.945312 C 100.777344 19.121094 98.457031 18.304688 96.136719 17.96875 C 98.121094 18.46875 99.445312 19.121094 100.277344 19.449219 C 98.457031 19.121094 96.136719 17.96875 93.480469 17.480469 C 97.785156 18.792969 105.914062 21.75 110.882812 24.378906 C 109.058594 23.226562 106.902344 22.40625 105.746094 21.75 C 106.738281 21.914062 107.902344 22.574219 107.902344 22.242188 C 109.058594 22.738281 110.554688 23.882812 111.378906 24.046875 C 109.886719 23.066406 106.902344 21.585938 105.914062 21.097656 C 118.339844 26.675781 129.445312 36.039062 136.574219 48.027344 C 137.238281 49.179688 138.234375 51.800781 139.058594 52.136719 C 138.894531 51.3125 138.234375 50.820312 137.566406 49.507812 C 137.902344 49.507812 137.902344 49.015625 137.566406 48.519531 C 136.902344 47.699219 137.566406 49.179688 136.902344 48.355469 C 133.921875 42.933594 130.277344 38.171875 124.640625 32.921875 C 127.792969 35.875 125.472656 33.738281 124.804688 32.75 C 129.117188 36.53125 134.085938 42.933594 136.242188 46.222656 C 135.914062 45.726562 135.746094 45.398438 135.914062 45.398438 C 139.886719 52.136719 142.378906 58.210938 144.863281 66.914062 C 145.027344 67.078125 144.863281 66.253906 145.195312 66.746094 C 146.855469 73.644531 147.347656 79.394531 147.183594 84.652344 C 148.503906 75.785156 145.523438 61.984375 140.222656 51.148438 C 139.558594 49.832031 139.558594 50.820312 138.894531 49.34375 C 138.894531 48.847656 138.398438 47.863281 138.066406 47.203125 C 131.4375 36.367188 123.316406 28.648438 113.699219 22.574219 C 114.363281 22.902344 115.6875 23.882812 115.691406 23.71875 C 97.792969 12.058594 77.074219 10.417969 60 14.03125 C 58.839844 14.523438 58.339844 15.019531 57.019531 15.675781 C 59.503906 14.851562 60.996094 14.6875 63.316406 14.195312 C 63.816406 13.707031 61.160156 14.359375 62.320312 13.867188 C 62.484375 14.03125 64.640625 13.535156 65.136719 13.707031 C 65.136719 13.867188 64.476562 14.03125 64.308594 14.195312 C 69.777344 13.046875 75.417969 12.882812 80.222656 13.207031 C 77.402344 13.371094 72.261719 12.882812 70.605469 13.707031 C 72.261719 13.535156 74.582031 13.371094 76.078125 13.535156 C 74.085938 13.535156 70.441406 13.707031 68.785156 13.867188 C 68.621094 13.707031 71.4375 13.371094 69.613281 13.371094 C 68.785156 13.535156 67.457031 13.535156 66.960938 14.03125 C 52.707031 15.347656 38.785156 22.738281 29.003906 31.441406 C 27.019531 33.082031 24.699219 34.890625 23.203125 36.695312 C 19.558594 40.800781 17.238281 44.90625 14.582031 48.519531 C 16.242188 45.070312 19.886719 39.8125 24.199219 35.378906 C 28.503906 30.945312 33.144531 27.171875 35.636719 25.195312 C 35.636719 25.855469 39.613281 22.738281 41.105469 21.75 C 40.113281 22.574219 41.765625 21.421875 42.097656 21.585938 C 47.402344 18.46875 51.714844 17.316406 56.519531 15.511719 C 55.359375 15.839844 54.363281 16.164062 54.199219 16 C 55.359375 15.675781 56.019531 15.347656 55.855469 15.183594 C 51.214844 16.492188 43.921875 19.613281 38.121094 23.066406 C 48.5625 16 61.824219 11.730469 74.917969 11.566406 C 88.011719 11.238281 100.777344 14.523438 110.882812 19.78125 C 117.679688 22.738281 124.144531 28.152344 129.28125 33.410156 C 130.777344 34.726562 129.613281 33.082031 131.765625 35.378906 C 131.105469 35.050781 130.605469 34.726562 131.4375 35.710938 C 132.761719 37.183594 131.105469 34.5625 133.261719 37.183594 C 133.097656 37.183594 132.433594 36.367188 132.433594 36.695312 C 138.234375 41.789062 142.707031 50.984375 145.359375 57.058594 C 144.699219 54.59375 143.039062 51.148438 141.714844 48.683594 C 145.6875 55.910156 147.019531 60.179688 148.675781 66.582031 C 149.339844 67.078125 148.339844 64.285156 149.003906 65.601562 C 149.175781 66.582031 149.339844 69.707031 150 70.199219 C 149.503906 67.078125 148.675781 63.300781 148.011719 62.644531 C 148.503906 62.972656 147.183594 58.863281 146.355469 57.882812 C 146.019531 55.253906 143.699219 50.65625 141.714844 47.203125 C 134.582031 33.410156 121.824219 22.078125 107.566406 15.839844 C 107.566406 15.511719 106.738281 15.183594 106.40625 14.851562 C 92.320312 8.9375 75.417969 7.296875 59.175781 11.078125 C 42.761719 15.015625 27.347656 24.378906 16.40625 37.84375 C 16.902344 36.203125 21.046875 33.082031 21.214844 31.769531 C 16.40625 36.859375 11.273438 43.59375 7.792969 50.820312 C 4.144531 58.046875 2.15625 65.4375 1.324219 70.851562 "/>
<g clip-path="url(#clip1)" clip-rule="nonzero">
<path style=" stroke:none;fill-rule:nonzero;fill:rgb(90.980392%,22.745098%,22.745098%);fill-opacity:1;" d="M 38.566406 42.699219 L 75.769531 42.699219 C 85.3125 42.699219 92.8125 44.976562 98.269531 49.539062 C 103.722656 54.097656 106.449219 60.21875 106.449219 67.910156 C 106.449219 76.097656 103.722656 82.363281 98.269531 86.703125 C 92.8125 91.0625 85.355469 93.238281 75.894531 93.238281 L 74.105469 94.257812 L 55.949219 94.257812 L 55.949219 126.300781 L 38.566406 126.300781 Z M 55.949219 80.953125 L 73.722656 80.953125 C 78.660156 80.953125 82.355469 79.964844 84.792969 77.992188 C 87.210938 75.992188 88.425781 72.933594 88.425781 68.789062 C 88.425781 64.65625 87.210938 61.585938 84.792969 59.59375 C 82.355469 57.621094 78.660156 56.632812 73.722656 56.632812 L 55.949219 56.632812 Z M 68.996094 89.695312 L 84.074219 84.628906 L 111.433594 126.300781 L 91.617188 126.300781 Z M 68.996094 89.695312 "/>
</g>
</g>
</svg>
