<?xml version="1.0" encoding="UTF-8"?>
<svg xmlns="http://www.w3.org/2000/svg" xmlns:xlink="http://www.w3.org/1999/xlink" width="100px" height="113px" viewBox="0 0 100 112" version="1.1">
<defs>
<clipPath id="clip1">
  <path d="M 25.710938 28.050781 L 74.289062 28.050781 L 74.289062 83.949219 L 25.710938 83.949219 Z M 25.710938 28.050781 "/>
</clipPath>
</defs>
<g id="surface1">
<path style=" stroke:none;fill-rule:nonzero;fill:rgb(100%,0%,0%);fill-opacity:1;" d="M 68.617188 12.835938 C 68.839844 12.835938 70.609375 13.714844 71.601562 14.042969 C 71.269531 14.152344 70.496094 13.824219 69.613281 13.492188 C 69.835938 13.492188 70.277344 13.605469 70.71875 13.824219 C 70.496094 13.605469 68.839844 13.054688 68.617188 12.835938 M 52.15625 9.429688 C 52.484375 9.320312 56.351562 9.871094 58.121094 9.980469 C 58.230469 9.871094 57.902344 9.871094 57.457031 9.761719 C 58.011719 9.652344 59.117188 9.980469 59.890625 10.089844 C 57.570312 10.199219 55.027344 9.539062 52.816406 9.761719 C 52.042969 9.761719 52.597656 9.542969 52.15625 9.429688 M 48.949219 9.429688 C 50.9375 9.429688 52.484375 9.429688 49.613281 9.652344 C 49.28125 9.539062 48.839844 9.539062 48.949219 9.429688 M 80.222656 18.546875 C 80.441406 18.546875 81.324219 19.535156 81.769531 19.863281 C 81.65625 19.972656 80.773438 19.09375 80.332031 18.765625 C 80.441406 18.875 80.332031 18.765625 80.222656 18.546875 M 78.011719 17.117188 C 77.125 16.347656 76.796875 16.347656 76.683594 15.910156 C 77.457031 16.347656 78.011719 16.789062 78.011719 17.117188 M 63.757812 10.199219 C 63.867188 10.089844 64.089844 10.308594 64.640625 10.417969 C 63.976562 10.308594 64.089844 10.417969 64.308594 10.636719 C 63.535156 10.527344 63.316406 10.417969 63.535156 10.199219 C 63.976562 10.417969 64.089844 10.308594 63.757812 10.199219 M 32.375 11.515625 C 32.375 11.40625 32.816406 11.1875 33.148438 11.078125 C 32.816406 11.296875 32.929688 11.40625 33.480469 11.1875 C 33.480469 11.296875 32.816406 11.515625 32.375 11.738281 C 32.597656 11.625 32.816406 11.296875 32.375 11.515625 M 65.96875 9.101562 C 65.636719 9.210938 64.421875 8.550781 63.203125 8.332031 C 62.542969 8.113281 65.855469 8.882812 65.96875 9.101562 M 0.773438 63.347656 C 1.4375 66.09375 0.996094 65.984375 0.773438 63.347656 M 0.882812 46.875 C 0.996094 46.4375 1.105469 45.230469 1.214844 45.339844 C 0.882812 47.972656 0.332031 49.183594 0.222656 51.160156 C 0.550781 49.402344 0.109375 52.148438 0 52.804688 C 0.109375 53.683594 0.109375 52.257812 0.332031 52.476562 C 0.550781 52.804688 -0.109375 57.417969 0.109375 54.894531 C -0.109375 57.199219 0.109375 59.722656 0.550781 60.382812 C 0 63.898438 2.761719 71.804688 3.316406 73.449219 C 3.425781 73.558594 3.316406 72.902344 3.535156 73.339844 C 3.757812 74.769531 4.75 75.757812 5.082031 77.292969 C 5.414062 77.734375 6.742188 80.148438 6.960938 80.699219 C 7.402344 81.578125 7.625 81.464844 8.066406 82.34375 C 9.390625 84.871094 11.492188 87.285156 13.480469 89.59375 C 19.890625 97.058594 29.722656 103.207031 40.664062 105.40625 C 51.601562 107.710938 63.09375 106.066406 72.042969 101.78125 C 72.597656 101.453125 72.484375 101.34375 73.148438 101.121094 C 76.242188 100.132812 80 96.949219 82.097656 95.742188 C 83.09375 94.644531 85.746094 92.777344 86.078125 91.679688 C 87.957031 90.140625 89.835938 87.617188 90.828125 85.96875 C 91.382812 85.089844 91.824219 85.089844 92.042969 84.542969 C 91.933594 84.542969 93.8125 82.234375 94.363281 80.917969 C 94.144531 80.917969 93.8125 81.578125 93.8125 80.917969 C 97.789062 73.339844 100 63.128906 98.785156 56.101562 C 99.003906 64.777344 96.796875 74.4375 92.597656 80.585938 C 90.71875 84.542969 86.851562 88.824219 83.316406 91.898438 C 82.761719 92.449219 82.210938 93.105469 81.546875 93.546875 C 79.449219 95.300781 77.125 96.730469 74.695312 98.046875 C 68.949219 101.234375 62.542969 103.976562 55.027344 104.085938 C 67.957031 102.988281 79.558594 96.511719 85.96875 88.605469 C 81.105469 93.324219 79.003906 95.191406 73.589844 97.9375 C 73.148438 98.707031 69.503906 100.246094 67.070312 100.902344 C 68.507812 100.246094 71.492188 99.144531 72.484375 98.265625 C 64.421875 102.109375 55.46875 104.308594 47.070312 103.097656 C 50.277344 103.097656 54.804688 103.210938 59.117188 102.441406 C 59.777344 102.222656 60.109375 102 60.882812 101.890625 C 69.28125 100.023438 77.347656 95.960938 83.09375 90.25 C 79.777344 93.214844 74.808594 96.730469 71.601562 97.828125 C 74.585938 96.179688 80 92.996094 81.769531 90.582031 C 78.230469 94.09375 71.601562 97.609375 67.402344 99.144531 C 66.742188 99.253906 67.84375 98.707031 66.742188 99.144531 C 65.414062 99.476562 65.96875 99.476562 65.636719 99.695312 C 60.550781 101.125 54.695312 102.332031 49.835938 101.890625 C 48.949219 101.78125 48.617188 101.5625 47.84375 101.5625 C 46.960938 101.453125 46.1875 101.453125 45.195312 101.453125 C 41.324219 101.011719 37.128906 99.476562 34.03125 98.15625 C 32.375 97.390625 30.71875 96.839844 29.0625 95.851562 C 27.734375 95.082031 26.628906 94.203125 25.523438 93.328125 C 21.328125 90.25 17.789062 87.175781 14.476562 82.785156 C 8.507812 74.550781 5.414062 64.226562 5.855469 54.015625 C 6.296875 43.800781 10.386719 33.808594 16.90625 26.453125 C 16.574219 26.78125 17.347656 25.683594 18.011719 25.023438 C 18.011719 25.242188 17.898438 25.574219 18.675781 24.804688 C 19.335938 24.035156 18.453125 24.585938 18.785156 24.144531 C 25.636719 16.679688 37.570312 10.636719 49.835938 10.417969 C 50.277344 10.089844 51.050781 9.652344 51.933594 9.871094 C 51.933594 9.980469 51.382812 9.980469 51.382812 9.980469 C 52.597656 9.871094 53.703125 9.871094 54.253906 10.089844 C 54.363281 9.980469 53.8125 9.871094 54.253906 9.871094 C 55.027344 10.089844 55.25 9.871094 55.691406 10.089844 C 55.359375 10.089844 55.027344 10.089844 54.804688 10.199219 C 57.570312 10.199219 59.335938 10.859375 62.097656 11.078125 C 60.664062 10.75 60.332031 10.75 59.226562 10.417969 C 60.441406 10.636719 60.996094 10.859375 61.546875 10.75 C 61.324219 10.75 61.4375 10.417969 61.65625 10.527344 C 63.867188 11.078125 64.089844 11.296875 66.410156 12.066406 C 66.628906 11.847656 65.414062 11.738281 65.082031 11.40625 C 67.292969 12.175781 69.28125 12.726562 70.609375 13.605469 C 70.164062 13.273438 68.839844 12.835938 67.84375 12.394531 C 67.734375 12.503906 68.175781 12.613281 68.289062 12.835938 C 67.183594 12.285156 65.636719 11.738281 64.089844 11.515625 C 65.414062 11.847656 66.296875 12.285156 66.851562 12.503906 C 65.636719 12.285156 64.089844 11.515625 62.320312 11.1875 C 65.191406 12.066406 70.609375 14.042969 73.921875 15.800781 C 72.707031 15.03125 71.269531 14.480469 70.496094 14.042969 C 71.160156 14.152344 71.933594 14.59375 71.933594 14.371094 C 72.707031 14.703125 73.703125 15.46875 74.253906 15.578125 C 73.257812 14.921875 71.269531 13.933594 70.609375 13.605469 C 78.894531 17.335938 86.296875 23.597656 91.050781 31.613281 C 91.492188 32.382812 92.15625 34.136719 92.707031 34.359375 C 92.597656 33.808594 92.15625 33.480469 91.710938 32.601562 C 91.933594 32.601562 91.933594 32.273438 91.710938 31.941406 C 91.269531 31.394531 91.710938 32.382812 91.269531 31.832031 C 89.28125 28.207031 86.851562 25.023438 83.09375 21.511719 C 85.195312 23.488281 83.648438 22.058594 83.203125 21.398438 C 86.078125 23.925781 89.390625 28.207031 90.828125 30.40625 C 90.609375 30.074219 90.496094 29.855469 90.609375 29.855469 C 93.257812 34.359375 94.917969 38.421875 96.574219 44.242188 C 96.683594 44.351562 96.574219 43.800781 96.796875 44.128906 C 97.902344 48.742188 98.230469 52.585938 98.121094 56.101562 C 99.003906 50.171875 97.015625 40.945312 93.480469 33.699219 C 93.039062 32.820312 93.039062 33.480469 92.597656 32.492188 C 92.597656 32.160156 92.265625 31.503906 92.042969 31.0625 C 87.625 23.816406 82.210938 18.65625 75.800781 14.59375 C 76.242188 14.8125 77.125 15.46875 77.128906 15.359375 C 65.195312 7.5625 51.382812 6.464844 40 8.882812 C 39.226562 9.210938 38.894531 9.542969 38.011719 9.980469 C 39.667969 9.429688 40.664062 9.320312 42.210938 8.992188 C 42.542969 8.664062 40.773438 9.101562 41.546875 8.773438 C 41.65625 8.882812 43.09375 8.550781 43.425781 8.664062 C 43.425781 8.773438 42.984375 8.882812 42.871094 8.992188 C 46.519531 8.222656 50.277344 8.113281 53.480469 8.332031 C 51.601562 8.441406 48.175781 8.113281 47.070312 8.664062 C 48.175781 8.550781 49.722656 8.441406 50.71875 8.550781 C 49.390625 8.550781 46.960938 8.664062 45.855469 8.773438 C 45.746094 8.664062 47.625 8.441406 46.410156 8.441406 C 45.855469 8.550781 44.972656 8.550781 44.640625 8.882812 C 35.136719 9.761719 25.855469 14.703125 19.335938 20.523438 C 18.011719 21.621094 16.464844 22.828125 15.46875 24.035156 C 13.039062 26.78125 11.492188 29.527344 9.722656 31.941406 C 10.828125 29.636719 13.257812 26.121094 16.132812 23.15625 C 19.003906 20.191406 22.097656 17.667969 23.757812 16.347656 C 23.757812 16.789062 26.410156 14.703125 27.402344 14.042969 C 26.742188 14.59375 27.84375 13.824219 28.066406 13.933594 C 31.601562 11.847656 34.476562 11.078125 37.679688 9.871094 C 36.90625 10.089844 36.242188 10.308594 36.132812 10.199219 C 36.90625 9.980469 37.347656 9.761719 37.238281 9.652344 C 34.144531 10.527344 29.28125 12.613281 25.414062 14.921875 C 32.375 10.199219 41.214844 7.34375 49.945312 7.234375 C 58.675781 7.015625 67.183594 9.210938 73.921875 12.726562 C 78.453125 14.703125 82.761719 18.324219 86.1875 21.839844 C 87.183594 22.71875 86.410156 21.621094 87.84375 23.15625 C 87.402344 22.9375 87.070312 22.71875 87.625 23.378906 C 88.507812 24.363281 87.402344 22.609375 88.839844 24.363281 C 88.730469 24.363281 88.289062 23.816406 88.289062 24.035156 C 92.15625 27.441406 95.136719 33.589844 96.90625 37.652344 C 96.464844 36.003906 95.359375 33.699219 94.476562 32.050781 C 97.125 36.882812 98.011719 39.738281 99.117188 44.019531 C 99.558594 44.351562 98.894531 42.484375 99.335938 43.363281 C 99.449219 44.019531 99.558594 46.109375 100 46.4375 C 99.667969 44.351562 99.117188 41.824219 98.675781 41.386719 C 99.003906 41.605469 98.121094 38.859375 97.570312 38.203125 C 97.347656 36.445312 95.800781 33.371094 94.476562 31.0625 C 89.722656 21.839844 81.214844 14.261719 71.710938 10.089844 C 71.710938 9.871094 71.160156 9.652344 70.9375 9.429688 C 61.546875 5.476562 50.277344 4.378906 39.449219 6.90625 C 28.507812 9.539062 18.230469 15.800781 10.9375 24.804688 C 11.269531 23.707031 14.03125 21.621094 14.144531 20.742188 C 10.9375 24.144531 7.515625 28.648438 5.195312 33.480469 C 2.761719 38.3125 1.4375 43.253906 0.882812 46.875 "/>
<g clip-path="url(#clip1)" clip-rule="nonzero">
<path style=" stroke:none;fill-rule:nonzero;fill:rgb(90.980392%,22.745098%,22.745098%);fill-opacity:1;" d="M 25.710938 28.050781 L 50.511719 28.050781 C 56.875 28.050781 61.875 29.574219 65.511719 32.625 C 69.148438 35.671875 70.964844 39.765625 70.964844 44.90625 C 70.964844 50.382812 69.148438 54.570312 65.511719 57.472656 C 61.875 60.386719 56.902344 61.84375 50.597656 61.84375 L 49.402344 62.523438 L 37.300781 62.523438 L 37.300781 83.949219 L 25.710938 83.949219 Z M 37.300781 53.628906 L 49.148438 53.628906 C 52.441406 53.628906 54.902344 52.96875 56.527344 51.648438 C 58.140625 50.3125 58.949219 48.265625 58.949219 45.496094 C 58.949219 42.730469 58.140625 40.679688 56.527344 39.347656 C 54.902344 38.027344 52.441406 37.367188 49.148438 37.367188 L 37.300781 37.367188 Z M 45.996094 59.472656 L 56.050781 56.085938 L 74.289062 83.949219 L 61.078125 83.949219 Z M 45.996094 59.472656 "/>
</g>
</g>
</svg>
